<svg t="1742214563218" class="icon" viewBox="0 0 1024 1024" version="1.1" xmlns="http://www.w3.org/2000/svg" p-id="957" width="200" height="200"><path d="M751.0528 45.6704H272.9472A132.1984 132.1984 0 0 0 140.9536 177.664v662.3744a132.1472 132.1472 0 0 0 131.9936 131.9936h478.1056a132.1472 132.1472 0 0 0 131.9936-131.9936V177.664a132.1984 132.1984 0 0 0-131.9936-131.9936z m-478.1056 51.2h478.1056a80.896 80.896 0 0 1 80.7936 80.7936v236.6976H192.1536V177.664a80.896 80.896 0 0 1 80.7936-80.7936z m478.1056 823.9616H272.9472a80.896 80.896 0 0 1-80.7936-80.7936V465.5616h639.6928v374.4768a80.896 80.896 0 0 1-80.7936 80.7936z" fill="#13227a" p-id="958"></path><path d="M315.2896 329.216a25.6 25.6 0 0 0 25.6-25.6V248.9856a25.6 25.6 0 0 0-51.2 0V303.616a25.6 25.6 0 0 0 25.6 25.6zM315.2896 571.2384a25.6 25.6 0 0 0-25.6 25.6v110.592a25.6 25.6 0 0 0 51.2 0v-110.592a25.6 25.6 0 0 0-25.6-25.6z" fill="#00a4ff" p-id="959"></path></svg>